<svg width="1000" height="587" viewBox="0 0 1000 587" fill="none" xmlns="http://www.w3.org/2000/svg">
<path d="M1000 587.001L0 356.001V339.238L37 347.001L80 44.001H0V27.001L1000 0.000976562V20.395L952.239 21.649L874.2 538.061L1000 566.601V587.001ZM101.467 43.992L56.467 352.562L854.867 533.674L932.167 22.174L101.467 43.992Z" fill="#F2F5F6"/>
<path d="M456.65 93.4598L530.393 111.846C530.521 111.878 530.632 111.96 530.7 112.074C530.769 112.187 530.789 112.323 530.757 112.452L499.307 238.59C497.735 244.895 493.723 250.317 488.153 253.664C482.583 257.011 475.912 258.008 469.608 256.436L419.152 243.856C419.024 243.824 418.913 243.742 418.845 243.628C418.776 243.514 418.756 243.378 418.788 243.25L456.044 93.824C456.076 93.6953 456.158 93.5847 456.272 93.5164C456.385 93.4481 456.522 93.4277 456.65 93.4598V93.4598Z" stroke="#00394C"/>
<path d="M445.141 125.403L380.131 109.194L350.858 226.6L415.868 242.809L445.141 125.403Z" stroke="#00394C"/>
<path d="M377.141 109.403L312.131 93.1943L283.1 209.63L348.11 225.839L377.141 109.403Z" stroke="#00394C"/>
<path d="M309.141 92.4031L244.131 76.1943L215.1 192.63L280.11 208.839L309.141 92.4031Z" stroke="#00394C"/>
<path d="M247.651 44.1963L104.586 47.4234L88.1195 165.937L209.506 196.202L247.651 44.1963ZM248.94 43.1669L210.233 197.414L87.0053 166.69L103.713 46.4428L248.94 43.1669Z" fill="#00394C"/>
<path d="M87.3606 169.555L75.121 259.902L188.607 283.622L208.545 199.77L87.3606 169.555ZM86.5195 168.314L209.747 199.039L189.355 284.8L74.0051 260.69L86.5195 168.314Z" fill="#00394C"/>
<path d="M188.032 287.443L74.3371 263.507L60.1051 349.937L167.035 374.741L188.032 287.443ZM189.245 286.677L167.775 375.939L58.9661 350.7L73.5202 262.313L189.245 286.677Z" fill="#00394C"/>
<path d="M540.374 274.797C540.375 274.798 540.376 274.798 540.377 274.798C540.509 274.833 540.644 274.869 540.777 274.904L540.781 274.905L540.785 274.906L600.669 290.961L622.398 206.987L539.708 186.287L523.595 249.528L523.594 249.534L523.592 249.54C522.268 254.478 522.32 258.852 523.746 262.54C525.978 268.314 531.572 272.437 540.374 274.797ZM540.118 275.764C519.076 270.124 520.844 255.93 522.626 249.281L538.984 185.075L623.619 206.262L601.384 292.189L540.526 275.872C540.39 275.836 540.252 275.8 540.118 275.764Z" fill="#00394C"/>
<path d="M757.884 149.075L650.202 123.209L604.484 292.24L712.168 319.089L757.884 149.075ZM759.116 148.342L712.878 320.296L603.252 292.964L649.49 122.01L759.116 148.342Z" fill="#00394C"/>
<path d="M762.203 150.001L715.488 320.239L876.874 360.244L902.824 185.062L762.203 150.001ZM761.497 148.795L903.946 184.311L877.702 361.48L714.252 320.963L761.497 148.795Z" fill="#00394C"/>
<path d="M199.287 381.405L274.706 398.893L303.447 275.296L254.149 262.078C251.019 261.239 247.819 261.038 244.637 261.48C241.563 261.908 238.636 262.915 235.935 264.473C233.235 266.032 230.898 268.063 228.99 270.511C227.017 273.042 225.591 275.911 224.752 279.038L199.287 381.405ZM198.071 382.15L223.783 278.787C227.36 265.45 241.071 257.536 254.408 261.112L304.64 274.58L275.453 400.093L198.071 382.15Z" fill="#00394C"/>
<path d="M307.408 276.5L278.071 399.856L352.945 416.582L380.726 295.055L307.408 276.5ZM306.67 275.281L381.918 294.325L353.698 417.775L276.863 400.611L306.67 275.281Z" fill="#00394C"/>
<path d="M457.722 313.072L384.082 295.822L356.703 417.496L429.947 434.573L457.722 313.072ZM458.919 312.325L430.698 435.774L355.51 418.245L383.328 294.618L458.919 312.325Z" fill="#00394C"/>
<path d="M521.049 328.651L461.313 313.937L433.77 435.426L493.265 449.123L521.049 328.651ZM522.245 327.916L494.014 450.322L432.574 436.177L460.563 312.722L522.245 327.916Z" fill="#00394C"/>
<path d="M524.517 329.806L497.386 450L580.596 468.632L606.54 350.256L524.517 329.806ZM523.767 328.588L607.725 349.521L581.357 469.827L496.19 450.757L523.767 328.588Z" fill="#00394C"/>
<path d="M692.534 371.259L610.259 351.188L584.349 469.558L666.217 488.092L692.534 371.259ZM693.725 370.521L666.972 489.288L583.16 470.314L609.501 349.974L693.725 370.521Z" fill="#00394C"/>
<path d="M781.736 393.307L696.061 372.291L669.947 488.878L755.974 508.473L781.736 393.307ZM782.926 392.569L756.73 509.671L668.754 489.631L695.309 371.077L782.926 392.569Z" fill="#00394C"/>
<path d="M796.515 344.811L759.178 509.152L851.972 530.301L876.482 365.245L796.515 344.811ZM795.768 343.588L877.604 364.499L852.803 531.516L757.982 509.905L795.768 343.588Z" fill="#00394C"/>
<path d="M523.86 36.4289L471.095 37.4997L457.505 90.0662L531.241 108.45L534.572 95.1542L512.648 89.5501L511.703 89.3084L511.921 88.3572L523.86 36.4289ZM525.122 35.4031L512.896 88.5812L535.784 94.4319L531.968 109.662L456.285 90.7925L470.316 36.5153L525.122 35.4031Z" fill="#00394C"/>
<path d="M575.462 101.686L592.038 33.6664L928.038 25.5664L903.879 181.023L575.462 101.686Z" stroke="#00394C"/>
<path d="M572.4 101.172L562.344 98.9159L578.172 33.8799H589L572.4 101.172Z" stroke="#00394C"/>
<path d="M543.95 182.752C545.498 183.167 547.467 183.605 550.448 184.269C559.509 186.285 578.296 190.466 623.743 202.639L645.204 121.846L562.53 102.072L541.299 181.916C542.115 182.222 542.934 182.48 543.95 182.752ZM543.691 183.718C542.313 183.349 541.253 182.995 540.104 182.518L561.814 100.873L646.434 121.112L624.452 203.864C563.38 187.49 550.101 185.437 543.691 183.718Z" fill="#00394C"/>
<path d="M549.444 35.7976L527.838 36.368L515.974 86.9758L535.449 91.8314L549.444 35.7976ZM550.733 34.7632L536.177 93.0436L514.775 87.7075L527.041 35.3887L550.733 34.7632Z" fill="#00394C"/>
<path d="M116.624 322.097C115.76 322.097 114.987 321.868 114.304 321.409C113.632 320.95 113.104 320.294 112.72 319.441C112.347 318.577 112.16 317.564 112.16 316.401C112.16 315.238 112.347 314.23 112.72 313.377C113.104 312.513 113.632 311.852 114.304 311.393C114.987 310.934 115.76 310.705 116.624 310.705C117.488 310.705 118.256 310.934 118.928 311.393C119.611 311.852 120.144 312.513 120.528 313.377C120.912 314.23 121.104 315.238 121.104 316.401C121.104 317.564 120.912 318.577 120.528 319.441C120.144 320.294 119.611 320.95 118.928 321.409C118.256 321.868 117.488 322.097 116.624 322.097ZM116.624 321.041C117.275 321.041 117.845 320.86 118.336 320.497C118.837 320.134 119.227 319.606 119.504 318.913C119.781 318.22 119.92 317.382 119.92 316.401C119.92 315.42 119.781 314.582 119.504 313.889C119.227 313.196 118.837 312.668 118.336 312.305C117.845 311.942 117.275 311.761 116.624 311.761C115.973 311.761 115.397 311.942 114.896 312.305C114.405 312.668 114.021 313.196 113.744 313.889C113.467 314.582 113.328 315.42 113.328 316.401C113.328 317.382 113.467 318.22 113.744 318.913C114.021 319.606 114.405 320.134 114.896 320.497C115.397 320.86 115.973 321.041 116.624 321.041ZM125.827 310.801V322.001H124.675V311.825H122.035V310.801H125.827Z" fill="#00394C"/>
<path d="M132.468 232.097C131.604 232.097 130.831 231.868 130.148 231.409C129.476 230.95 128.948 230.294 128.564 229.441C128.191 228.577 128.004 227.564 128.004 226.401C128.004 225.238 128.191 224.23 128.564 223.377C128.948 222.513 129.476 221.852 130.148 221.393C130.831 220.934 131.604 220.705 132.468 220.705C133.332 220.705 134.1 220.934 134.772 221.393C135.455 221.852 135.988 222.513 136.372 223.377C136.756 224.23 136.948 225.238 136.948 226.401C136.948 227.564 136.756 228.577 136.372 229.441C135.988 230.294 135.455 230.95 134.772 231.409C134.1 231.868 133.332 232.097 132.468 232.097ZM132.468 231.041C133.119 231.041 133.689 230.86 134.18 230.497C134.681 230.134 135.071 229.606 135.348 228.913C135.625 228.22 135.764 227.382 135.764 226.401C135.764 225.42 135.625 224.582 135.348 223.889C135.071 223.196 134.681 222.668 134.18 222.305C133.689 221.942 133.119 221.761 132.468 221.761C131.817 221.761 131.241 221.942 130.74 222.305C130.249 222.668 129.865 223.196 129.588 223.889C129.311 224.582 129.172 225.42 129.172 226.401C129.172 227.382 129.311 228.22 129.588 228.913C129.865 229.606 130.249 230.134 130.74 230.497C131.241 230.86 131.817 231.041 132.468 231.041ZM146.214 230.977V232.001H138.358V231.185L143.014 226.625C143.601 226.049 143.996 225.553 144.198 225.137C144.412 224.71 144.518 224.284 144.518 223.857C144.518 223.196 144.289 222.684 143.83 222.321C143.382 221.948 142.737 221.761 141.894 221.761C140.582 221.761 139.564 222.177 138.838 223.009L138.022 222.305C138.46 221.793 139.014 221.398 139.686 221.121C140.369 220.844 141.137 220.705 141.99 220.705C143.132 220.705 144.033 220.977 144.694 221.521C145.366 222.054 145.702 222.79 145.702 223.729C145.702 224.305 145.574 224.86 145.318 225.393C145.062 225.926 144.577 226.54 143.862 227.233L140.054 230.977H146.214Z" fill="#00394C"/>
<path d="M156.562 116.097C155.698 116.097 154.924 115.868 154.242 115.409C153.57 114.95 153.042 114.294 152.658 113.441C152.284 112.577 152.098 111.564 152.098 110.401C152.098 109.238 152.284 108.23 152.658 107.377C153.042 106.513 153.57 105.852 154.242 105.393C154.924 104.934 155.698 104.705 156.562 104.705C157.426 104.705 158.194 104.934 158.866 105.393C159.548 105.852 160.082 106.513 160.466 107.377C160.85 108.23 161.042 109.238 161.042 110.401C161.042 111.564 160.85 112.577 160.466 113.441C160.082 114.294 159.548 114.95 158.866 115.409C158.194 115.868 157.426 116.097 156.562 116.097ZM156.562 115.041C157.212 115.041 157.783 114.86 158.274 114.497C158.775 114.134 159.164 113.606 159.442 112.913C159.719 112.22 159.858 111.382 159.858 110.401C159.858 109.42 159.719 108.582 159.442 107.889C159.164 107.196 158.775 106.668 158.274 106.305C157.783 105.942 157.212 105.761 156.562 105.761C155.911 105.761 155.335 105.942 154.834 106.305C154.343 106.668 153.959 107.196 153.682 107.889C153.404 108.582 153.266 109.42 153.266 110.401C153.266 111.382 153.404 112.22 153.682 112.913C153.959 113.606 154.343 114.134 154.834 114.497C155.335 114.86 155.911 115.041 156.562 115.041ZM166.343 109.601C167.516 109.665 168.407 109.985 169.015 110.561C169.634 111.126 169.943 111.868 169.943 112.785C169.943 113.425 169.788 113.996 169.479 114.497C169.17 114.988 168.711 115.377 168.103 115.665C167.495 115.953 166.754 116.097 165.879 116.097C165.068 116.097 164.3 115.969 163.575 115.713C162.86 115.446 162.284 115.094 161.847 114.657L162.407 113.745C162.78 114.129 163.276 114.444 163.895 114.689C164.514 114.924 165.175 115.041 165.879 115.041C166.796 115.041 167.506 114.844 168.007 114.449C168.508 114.044 168.759 113.489 168.759 112.785C168.759 112.092 168.508 111.548 168.007 111.153C167.506 110.758 166.748 110.561 165.735 110.561H164.935V109.713L168.039 105.825H162.311V104.801H169.511V105.617L166.343 109.601Z" fill="#00394C"/>
<path d="M253.71 147.097C252.846 147.097 252.073 146.868 251.39 146.409C250.718 145.95 250.19 145.294 249.806 144.441C249.433 143.577 249.246 142.564 249.246 141.401C249.246 140.238 249.433 139.23 249.806 138.377C250.19 137.513 250.718 136.852 251.39 136.393C252.073 135.934 252.846 135.705 253.71 135.705C254.574 135.705 255.342 135.934 256.014 136.393C256.697 136.852 257.23 137.513 257.614 138.377C257.998 139.23 258.19 140.238 258.19 141.401C258.19 142.564 257.998 143.577 257.614 144.441C257.23 145.294 256.697 145.95 256.014 146.409C255.342 146.868 254.574 147.097 253.71 147.097ZM253.71 146.041C254.361 146.041 254.931 145.86 255.422 145.497C255.923 145.134 256.313 144.606 256.59 143.913C256.867 143.22 257.006 142.382 257.006 141.401C257.006 140.42 256.867 139.582 256.59 138.889C256.313 138.196 255.923 137.668 255.422 137.305C254.931 136.942 254.361 136.761 253.71 136.761C253.059 136.761 252.483 136.942 251.982 137.305C251.491 137.668 251.107 138.196 250.83 138.889C250.553 139.582 250.414 140.42 250.414 141.401C250.414 142.382 250.553 143.22 250.83 143.913C251.107 144.606 251.491 145.134 251.982 145.497C252.483 145.86 253.059 146.041 253.71 146.041ZM269.36 144.057H267.12V147.001H265.968V144.057H259.648V143.225L265.584 135.801H266.864L261.136 143.033H266V140.441H267.12V143.033H269.36V144.057Z" fill="#00394C"/>
<path d="M323.468 161.097C322.604 161.097 321.831 160.868 321.148 160.409C320.476 159.95 319.948 159.294 319.564 158.441C319.191 157.577 319.004 156.564 319.004 155.401C319.004 154.238 319.191 153.23 319.564 152.377C319.948 151.513 320.476 150.852 321.148 150.393C321.831 149.934 322.604 149.705 323.468 149.705C324.332 149.705 325.1 149.934 325.772 150.393C326.455 150.852 326.988 151.513 327.372 152.377C327.756 153.23 327.948 154.238 327.948 155.401C327.948 156.564 327.756 157.577 327.372 158.441C326.988 159.294 326.455 159.95 325.772 160.409C325.1 160.868 324.332 161.097 323.468 161.097ZM323.468 160.041C324.119 160.041 324.689 159.86 325.18 159.497C325.681 159.134 326.071 158.606 326.348 157.913C326.625 157.22 326.764 156.382 326.764 155.401C326.764 154.42 326.625 153.582 326.348 152.889C326.071 152.196 325.681 151.668 325.18 151.305C324.689 150.942 324.119 150.761 323.468 150.761C322.817 150.761 322.241 150.942 321.74 151.305C321.249 151.668 320.865 152.196 320.588 152.889C320.311 153.582 320.172 154.42 320.172 155.401C320.172 156.382 320.311 157.22 320.588 157.913C320.865 158.606 321.249 159.134 321.74 159.497C322.241 159.86 322.817 160.041 323.468 160.041ZM332.542 154.393C334.163 154.393 335.342 154.686 336.078 155.273C336.824 155.849 337.198 156.66 337.198 157.705C337.198 158.356 337.043 158.937 336.734 159.449C336.435 159.961 335.982 160.366 335.374 160.665C334.766 160.953 334.019 161.097 333.134 161.097C332.334 161.097 331.571 160.969 330.846 160.713C330.131 160.446 329.555 160.094 329.118 159.657L329.678 158.745C330.051 159.129 330.542 159.444 331.15 159.689C331.758 159.924 332.414 160.041 333.118 160.041C334.046 160.041 334.76 159.833 335.262 159.417C335.774 159.001 336.03 158.446 336.03 157.753C336.03 156.985 335.742 156.404 335.166 156.009C334.6 155.614 333.64 155.417 332.286 155.417H329.902L330.478 149.801H336.606V150.825H331.486L331.102 154.393H332.542Z" fill="#00394C"/>
<path d="M392.624 175.097C391.76 175.097 390.987 174.868 390.304 174.409C389.632 173.95 389.104 173.294 388.72 172.441C388.347 171.577 388.16 170.564 388.16 169.401C388.16 168.238 388.347 167.23 388.72 166.377C389.104 165.513 389.632 164.852 390.304 164.393C390.987 163.934 391.76 163.705 392.624 163.705C393.488 163.705 394.256 163.934 394.928 164.393C395.611 164.852 396.144 165.513 396.528 166.377C396.912 167.23 397.104 168.238 397.104 169.401C397.104 170.564 396.912 171.577 396.528 172.441C396.144 173.294 395.611 173.95 394.928 174.409C394.256 174.868 393.488 175.097 392.624 175.097ZM392.624 174.041C393.275 174.041 393.845 173.86 394.336 173.497C394.837 173.134 395.227 172.606 395.504 171.913C395.781 171.22 395.92 170.382 395.92 169.401C395.92 168.42 395.781 167.582 395.504 166.889C395.227 166.196 394.837 165.668 394.336 165.305C393.845 164.942 393.275 164.761 392.624 164.761C391.973 164.761 391.397 164.942 390.896 165.305C390.405 165.668 390.021 166.196 389.744 166.889C389.467 167.582 389.328 168.42 389.328 169.401C389.328 170.382 389.467 171.22 389.744 171.913C390.021 172.606 390.405 173.134 390.896 173.497C391.397 173.86 391.973 174.041 392.624 174.041ZM403.394 168.297C404.13 168.297 404.781 168.436 405.346 168.713C405.922 168.99 406.37 169.385 406.69 169.897C407.01 170.398 407.17 170.985 407.17 171.657C407.17 172.34 407.005 172.942 406.674 173.465C406.343 173.988 405.885 174.393 405.298 174.681C404.722 174.958 404.071 175.097 403.346 175.097C401.863 175.097 400.727 174.612 399.938 173.641C399.149 172.66 398.754 171.278 398.754 169.497C398.754 168.249 398.967 167.193 399.394 166.329C399.821 165.465 400.418 164.814 401.186 164.377C401.954 163.929 402.85 163.705 403.874 163.705C404.983 163.705 405.869 163.908 406.53 164.313L406.066 165.241C405.533 164.889 404.807 164.713 403.89 164.713C402.653 164.713 401.682 165.108 400.978 165.897C400.274 166.676 399.922 167.812 399.922 169.305C399.922 169.572 399.938 169.876 399.97 170.217C400.247 169.609 400.69 169.14 401.298 168.809C401.906 168.468 402.605 168.297 403.394 168.297ZM403.298 174.121C404.109 174.121 404.765 173.902 405.266 173.465C405.778 173.017 406.034 172.425 406.034 171.689C406.034 170.953 405.778 170.366 405.266 169.929C404.765 169.492 404.082 169.273 403.218 169.273C402.653 169.273 402.151 169.38 401.714 169.593C401.287 169.806 400.951 170.1 400.706 170.473C400.461 170.846 400.338 171.262 400.338 171.721C400.338 172.148 400.45 172.542 400.674 172.905C400.909 173.268 401.25 173.561 401.698 173.785C402.146 174.009 402.679 174.121 403.298 174.121Z" fill="#00394C"/>
<path d="M465.351 189.097C464.487 189.097 463.713 188.868 463.031 188.409C462.359 187.95 461.831 187.294 461.447 186.441C461.073 185.577 460.887 184.564 460.887 183.401C460.887 182.238 461.073 181.23 461.447 180.377C461.831 179.513 462.359 178.852 463.031 178.393C463.713 177.934 464.487 177.705 465.351 177.705C466.215 177.705 466.983 177.934 467.655 178.393C468.337 178.852 468.871 179.513 469.255 180.377C469.639 181.23 469.831 182.238 469.831 183.401C469.831 184.564 469.639 185.577 469.255 186.441C468.871 187.294 468.337 187.95 467.655 188.409C466.983 188.868 466.215 189.097 465.351 189.097ZM465.351 188.041C466.001 188.041 466.572 187.86 467.063 187.497C467.564 187.134 467.953 186.606 468.231 185.913C468.508 185.22 468.647 184.382 468.647 183.401C468.647 182.42 468.508 181.582 468.231 180.889C467.953 180.196 467.564 179.668 467.063 179.305C466.572 178.942 466.001 178.761 465.351 178.761C464.7 178.761 464.124 178.942 463.623 179.305C463.132 179.668 462.748 180.196 462.471 180.889C462.193 181.582 462.055 182.42 462.055 183.401C462.055 184.382 462.193 185.22 462.471 185.913C462.748 186.606 463.132 187.134 463.623 187.497C464.124 187.86 464.7 188.041 465.351 188.041ZM479.259 177.801V178.617L474.571 189.001H473.323L477.931 178.825H472.171V180.921H471.035V177.801H479.259Z" fill="#00394C"/>
<path d="M488.398 72.097C487.534 72.097 486.76 71.8676 486.078 71.409C485.406 70.9503 484.878 70.2943 484.494 69.441C484.12 68.577 483.934 67.5636 483.934 66.401C483.934 65.2383 484.12 64.2303 484.494 63.377C484.878 62.513 485.406 61.8516 486.078 61.393C486.76 60.9343 487.534 60.705 488.398 60.705C489.262 60.705 490.03 60.9343 490.702 61.393C491.384 61.8516 491.918 62.513 492.302 63.377C492.686 64.2303 492.878 65.2383 492.878 66.401C492.878 67.5636 492.686 68.577 492.302 69.441C491.918 70.2943 491.384 70.9503 490.702 71.409C490.03 71.8676 489.262 72.097 488.398 72.097ZM488.398 71.041C489.048 71.041 489.619 70.8596 490.11 70.497C490.611 70.1343 491 69.6063 491.278 68.913C491.555 68.2196 491.694 67.3823 491.694 66.401C491.694 65.4196 491.555 64.5823 491.278 63.889C491 63.1956 490.611 62.6676 490.11 62.305C489.619 61.9423 489.048 61.761 488.398 61.761C487.747 61.761 487.171 61.9423 486.67 62.305C486.179 62.6676 485.795 63.1956 485.518 63.889C485.24 64.5823 485.102 65.4196 485.102 66.401C485.102 67.3823 485.24 68.2196 485.518 68.913C485.795 69.6063 486.179 70.1343 486.67 70.497C487.171 70.8596 487.747 71.041 488.398 71.041ZM500.943 66.129C501.647 66.3636 502.186 66.7156 502.559 67.185C502.943 67.6543 503.135 68.2196 503.135 68.881C503.135 69.5316 502.959 70.1023 502.607 70.593C502.255 71.073 501.749 71.4463 501.087 71.713C500.437 71.969 499.669 72.097 498.783 72.097C497.439 72.097 496.383 71.809 495.615 71.233C494.847 70.657 494.463 69.873 494.463 68.881C494.463 68.209 494.645 67.6436 495.007 67.185C495.381 66.7156 495.919 66.3636 496.623 66.129C496.047 65.905 495.61 65.585 495.311 65.169C495.013 64.7423 494.863 64.241 494.863 63.665C494.863 62.7583 495.215 62.0383 495.919 61.505C496.634 60.9716 497.589 60.705 498.783 60.705C499.573 60.705 500.261 60.8276 500.847 61.073C501.445 61.3076 501.909 61.649 502.239 62.097C502.57 62.545 502.735 63.0676 502.735 63.665C502.735 64.241 502.581 64.7423 502.271 65.169C501.962 65.585 501.519 65.905 500.943 66.129ZM496.015 63.697C496.015 64.3156 496.261 64.8063 496.751 65.169C497.242 65.5316 497.919 65.713 498.783 65.713C499.647 65.713 500.325 65.5316 500.815 65.169C501.317 64.8063 501.567 64.321 501.567 63.713C501.567 63.0836 501.311 62.5876 500.799 62.225C500.298 61.8623 499.626 61.681 498.783 61.681C497.93 61.681 497.253 61.8623 496.751 62.225C496.261 62.5876 496.015 63.0783 496.015 63.697ZM498.783 71.121C499.775 71.121 500.549 70.9183 501.103 70.513C501.669 70.1076 501.951 69.5583 501.951 68.865C501.951 68.1716 501.669 67.6276 501.103 67.233C500.549 66.8276 499.775 66.625 498.783 66.625C497.802 66.625 497.029 66.8276 496.463 67.233C495.909 67.6276 495.631 68.1716 495.631 68.865C495.631 69.569 495.909 70.1236 496.463 70.529C497.018 70.9236 497.791 71.121 498.783 71.121Z" fill="#00394C"/>
<path d="M569.155 229.801V241.001H568.003V230.825H565.363V229.801H569.155ZM574.936 229.801V241.001H573.784V230.825H571.144V229.801H574.936Z" fill="#00394C"/>
<path d="M589.999 149.801V161.001H588.847V150.825H586.207V149.801H589.999ZM600.324 159.977V161.001H592.468V160.185L597.124 155.625C597.71 155.049 598.105 154.553 598.308 154.137C598.521 153.71 598.628 153.284 598.628 152.857C598.628 152.196 598.398 151.684 597.94 151.321C597.492 150.948 596.846 150.761 596.004 150.761C594.692 150.761 593.673 151.177 592.948 152.009L592.132 151.305C592.569 150.793 593.124 150.398 593.796 150.121C594.478 149.844 595.246 149.705 596.1 149.705C597.241 149.705 598.142 149.977 598.804 150.521C599.476 151.054 599.812 151.79 599.812 152.729C599.812 153.305 599.684 153.86 599.428 154.393C599.172 154.926 598.686 155.54 597.972 156.233L594.164 159.977H600.324Z" fill="#00394C"/>
<path d="M674.249 211.801V223.001H673.097V212.825H670.457V211.801H674.249ZM681.39 223.097C680.526 223.097 679.752 222.868 679.07 222.409C678.398 221.95 677.87 221.294 677.486 220.441C677.112 219.577 676.926 218.564 676.926 217.401C676.926 216.238 677.112 215.23 677.486 214.377C677.87 213.513 678.398 212.852 679.07 212.393C679.752 211.934 680.526 211.705 681.39 211.705C682.254 211.705 683.022 211.934 683.694 212.393C684.376 212.852 684.91 213.513 685.294 214.377C685.678 215.23 685.87 216.238 685.87 217.401C685.87 218.564 685.678 219.577 685.294 220.441C684.91 221.294 684.376 221.95 683.694 222.409C683.022 222.868 682.254 223.097 681.39 223.097ZM681.39 222.041C682.04 222.041 682.611 221.86 683.102 221.497C683.603 221.134 683.992 220.606 684.27 219.913C684.547 219.22 684.686 218.382 684.686 217.401C684.686 216.42 684.547 215.582 684.27 214.889C683.992 214.196 683.603 213.668 683.102 213.305C682.611 212.942 682.04 212.761 681.39 212.761C680.739 212.761 680.163 212.942 679.662 213.305C679.171 213.668 678.787 214.196 678.51 214.889C678.232 215.582 678.094 216.42 678.094 217.401C678.094 218.382 678.232 219.22 678.51 219.913C678.787 220.606 679.171 221.134 679.662 221.497C680.163 221.86 680.739 222.041 681.39 222.041Z" fill="#00394C"/>
<path d="M810.624 255.097C809.76 255.097 808.987 254.868 808.304 254.409C807.632 253.95 807.104 253.294 806.72 252.441C806.347 251.577 806.16 250.564 806.16 249.401C806.16 248.238 806.347 247.23 806.72 246.377C807.104 245.513 807.632 244.852 808.304 244.393C808.987 243.934 809.76 243.705 810.624 243.705C811.488 243.705 812.256 243.934 812.928 244.393C813.611 244.852 814.144 245.513 814.528 246.377C814.912 247.23 815.104 248.238 815.104 249.401C815.104 250.564 814.912 251.577 814.528 252.441C814.144 253.294 813.611 253.95 812.928 254.409C812.256 254.868 811.488 255.097 810.624 255.097ZM810.624 254.041C811.275 254.041 811.845 253.86 812.336 253.497C812.837 253.134 813.227 252.606 813.504 251.913C813.781 251.22 813.92 250.382 813.92 249.401C813.92 248.42 813.781 247.582 813.504 246.889C813.227 246.196 812.837 245.668 812.336 245.305C811.845 244.942 811.275 244.761 810.624 244.761C809.973 244.761 809.397 244.942 808.896 245.305C808.405 245.668 808.021 246.196 807.744 246.889C807.467 247.582 807.328 248.42 807.328 249.401C807.328 250.382 807.467 251.22 807.744 251.913C808.021 252.606 808.405 253.134 808.896 253.497C809.397 253.86 809.973 254.041 810.624 254.041ZM820.242 243.705C821.725 243.705 822.861 244.196 823.65 245.177C824.439 246.148 824.834 247.524 824.834 249.305C824.834 250.553 824.621 251.609 824.194 252.473C823.767 253.337 823.17 253.993 822.402 254.441C821.634 254.878 820.738 255.097 819.714 255.097C818.605 255.097 817.719 254.894 817.058 254.489L817.522 253.561C818.055 253.913 818.781 254.089 819.698 254.089C820.935 254.089 821.906 253.7 822.61 252.921C823.314 252.132 823.666 250.99 823.666 249.497C823.666 249.22 823.65 248.916 823.618 248.585C823.341 249.193 822.898 249.668 822.29 250.009C821.682 250.34 820.983 250.505 820.194 250.505C819.458 250.505 818.802 250.366 818.226 250.089C817.661 249.812 817.218 249.422 816.898 248.921C816.578 248.409 816.418 247.817 816.418 247.145C816.418 246.462 816.583 245.86 816.914 245.337C817.245 244.814 817.698 244.414 818.274 244.137C818.861 243.849 819.517 243.705 820.242 243.705ZM820.37 249.529C820.935 249.529 821.431 249.422 821.858 249.209C822.295 248.996 822.637 248.702 822.882 248.329C823.127 247.956 823.25 247.54 823.25 247.081C823.25 246.654 823.133 246.26 822.898 245.897C822.674 245.534 822.338 245.241 821.89 245.017C821.442 244.793 820.909 244.681 820.29 244.681C819.479 244.681 818.818 244.905 818.306 245.353C817.805 245.79 817.554 246.377 817.554 247.113C817.554 247.849 817.805 248.436 818.306 248.873C818.818 249.31 819.506 249.529 820.37 249.529Z" fill="#00394C"/>
<path d="M761.256 77.801V89.001H760.104V78.825H757.464V77.801H761.256ZM773.454 86.057H771.214V89.001H770.062V86.057H763.742V85.225L769.678 77.801H770.958L765.23 85.033H770.094V82.441H771.214V85.033H773.454V86.057Z" fill="#00394C"/>
<path d="M557.03 54.801V66.001H555.878V55.825H553.238V54.801H557.03ZM563.515 59.601C564.688 59.665 565.579 59.985 566.187 60.561C566.806 61.1263 567.115 61.8676 567.115 62.785C567.115 63.425 566.96 63.9956 566.651 64.497C566.342 64.9876 565.883 65.377 565.275 65.665C564.667 65.953 563.926 66.097 563.051 66.097C562.24 66.097 561.472 65.969 560.747 65.713C560.032 65.4463 559.456 65.0943 559.019 64.657L559.579 63.745C559.952 64.129 560.448 64.4436 561.067 64.689C561.686 64.9236 562.347 65.041 563.051 65.041C563.968 65.041 564.678 64.8436 565.179 64.449C565.68 64.0436 565.931 63.489 565.931 62.785C565.931 62.0916 565.68 61.5476 565.179 61.153C564.678 60.7583 563.92 60.561 562.907 60.561H562.107V59.713L565.211 55.825H559.483V54.801H566.683V55.617L563.515 59.601Z" fill="#00394C"/>
<path d="M248.624 329.097C247.76 329.097 246.987 328.868 246.304 328.409C245.632 327.95 245.104 327.294 244.72 326.441C244.347 325.577 244.16 324.564 244.16 323.401C244.16 322.238 244.347 321.23 244.72 320.377C245.104 319.513 245.632 318.852 246.304 318.393C246.987 317.934 247.76 317.705 248.624 317.705C249.488 317.705 250.256 317.934 250.928 318.393C251.611 318.852 252.144 319.513 252.528 320.377C252.912 321.23 253.104 322.238 253.104 323.401C253.104 324.564 252.912 325.577 252.528 326.441C252.144 327.294 251.611 327.95 250.928 328.409C250.256 328.868 249.488 329.097 248.624 329.097ZM248.624 328.041C249.275 328.041 249.845 327.86 250.336 327.497C250.837 327.134 251.227 326.606 251.504 325.913C251.781 325.22 251.92 324.382 251.92 323.401C251.92 322.42 251.781 321.582 251.504 320.889C251.227 320.196 250.837 319.668 250.336 319.305C249.845 318.942 249.275 318.761 248.624 318.761C247.973 318.761 247.397 318.942 246.896 319.305C246.405 319.668 246.021 320.196 245.744 320.889C245.467 321.582 245.328 322.42 245.328 323.401C245.328 324.382 245.467 325.22 245.744 325.913C246.021 326.606 246.405 327.134 246.896 327.497C247.397 327.86 247.973 328.041 248.624 328.041ZM257.827 317.801V329.001H256.675V318.825H254.035V317.801H257.827Z" fill="#00394C"/>
<path d="M324.468 349.097C323.604 349.097 322.831 348.868 322.148 348.409C321.476 347.95 320.948 347.294 320.564 346.441C320.191 345.577 320.004 344.564 320.004 343.401C320.004 342.238 320.191 341.23 320.564 340.377C320.948 339.513 321.476 338.852 322.148 338.393C322.831 337.934 323.604 337.705 324.468 337.705C325.332 337.705 326.1 337.934 326.772 338.393C327.455 338.852 327.988 339.513 328.372 340.377C328.756 341.23 328.948 342.238 328.948 343.401C328.948 344.564 328.756 345.577 328.372 346.441C327.988 347.294 327.455 347.95 326.772 348.409C326.1 348.868 325.332 349.097 324.468 349.097ZM324.468 348.041C325.119 348.041 325.689 347.86 326.18 347.497C326.681 347.134 327.071 346.606 327.348 345.913C327.625 345.22 327.764 344.382 327.764 343.401C327.764 342.42 327.625 341.582 327.348 340.889C327.071 340.196 326.681 339.668 326.18 339.305C325.689 338.942 325.119 338.761 324.468 338.761C323.817 338.761 323.241 338.942 322.74 339.305C322.249 339.668 321.865 340.196 321.588 340.889C321.311 341.582 321.172 342.42 321.172 343.401C321.172 344.382 321.311 345.22 321.588 345.913C321.865 346.606 322.249 347.134 322.74 347.497C323.241 347.86 323.817 348.041 324.468 348.041ZM338.214 347.977V349.001H330.358V348.185L335.014 343.625C335.601 343.049 335.996 342.553 336.198 342.137C336.412 341.71 336.518 341.284 336.518 340.857C336.518 340.196 336.289 339.684 335.83 339.321C335.382 338.948 334.737 338.761 333.894 338.761C332.582 338.761 331.564 339.177 330.838 340.009L330.022 339.305C330.46 338.793 331.014 338.398 331.686 338.121C332.369 337.844 333.137 337.705 333.99 337.705C335.132 337.705 336.033 337.977 336.694 338.521C337.366 339.054 337.702 339.79 337.702 340.729C337.702 341.305 337.574 341.86 337.318 342.393C337.062 342.926 336.577 343.54 335.862 344.233L332.054 347.977H338.214Z" fill="#00394C"/>
<path d="M400.562 368.097C399.698 368.097 398.924 367.868 398.242 367.409C397.57 366.95 397.042 366.294 396.658 365.441C396.284 364.577 396.098 363.564 396.098 362.401C396.098 361.238 396.284 360.23 396.658 359.377C397.042 358.513 397.57 357.852 398.242 357.393C398.924 356.934 399.698 356.705 400.562 356.705C401.426 356.705 402.194 356.934 402.866 357.393C403.548 357.852 404.082 358.513 404.466 359.377C404.85 360.23 405.042 361.238 405.042 362.401C405.042 363.564 404.85 364.577 404.466 365.441C404.082 366.294 403.548 366.95 402.866 367.409C402.194 367.868 401.426 368.097 400.562 368.097ZM400.562 367.041C401.212 367.041 401.783 366.86 402.274 366.497C402.775 366.134 403.164 365.606 403.442 364.913C403.719 364.22 403.858 363.382 403.858 362.401C403.858 361.42 403.719 360.582 403.442 359.889C403.164 359.196 402.775 358.668 402.274 358.305C401.783 357.942 401.212 357.761 400.562 357.761C399.911 357.761 399.335 357.942 398.834 358.305C398.343 358.668 397.959 359.196 397.682 359.889C397.404 360.582 397.266 361.42 397.266 362.401C397.266 363.382 397.404 364.22 397.682 364.913C397.959 365.606 398.343 366.134 398.834 366.497C399.335 366.86 399.911 367.041 400.562 367.041ZM410.343 361.601C411.516 361.665 412.407 361.985 413.015 362.561C413.634 363.126 413.943 363.868 413.943 364.785C413.943 365.425 413.788 365.996 413.479 366.497C413.17 366.988 412.711 367.377 412.103 367.665C411.495 367.953 410.754 368.097 409.879 368.097C409.068 368.097 408.3 367.969 407.575 367.713C406.86 367.446 406.284 367.094 405.847 366.657L406.407 365.745C406.78 366.129 407.276 366.444 407.895 366.689C408.514 366.924 409.175 367.041 409.879 367.041C410.796 367.041 411.506 366.844 412.007 366.449C412.508 366.044 412.759 365.489 412.759 364.785C412.759 364.092 412.508 363.548 412.007 363.153C411.506 362.758 410.748 362.561 409.735 362.561H408.935V361.713L412.039 357.825H406.311V356.801H413.511V357.617L410.343 361.601Z" fill="#00394C"/>
<path d="M470.71 385.097C469.846 385.097 469.073 384.868 468.39 384.409C467.718 383.95 467.19 383.294 466.806 382.441C466.433 381.577 466.246 380.564 466.246 379.401C466.246 378.238 466.433 377.23 466.806 376.377C467.19 375.513 467.718 374.852 468.39 374.393C469.073 373.934 469.846 373.705 470.71 373.705C471.574 373.705 472.342 373.934 473.014 374.393C473.697 374.852 474.23 375.513 474.614 376.377C474.998 377.23 475.19 378.238 475.19 379.401C475.19 380.564 474.998 381.577 474.614 382.441C474.23 383.294 473.697 383.95 473.014 384.409C472.342 384.868 471.574 385.097 470.71 385.097ZM470.71 384.041C471.361 384.041 471.931 383.86 472.422 383.497C472.923 383.134 473.313 382.606 473.59 381.913C473.867 381.22 474.006 380.382 474.006 379.401C474.006 378.42 473.867 377.582 473.59 376.889C473.313 376.196 472.923 375.668 472.422 375.305C471.931 374.942 471.361 374.761 470.71 374.761C470.059 374.761 469.483 374.942 468.982 375.305C468.491 375.668 468.107 376.196 467.83 376.889C467.553 377.582 467.414 378.42 467.414 379.401C467.414 380.382 467.553 381.22 467.83 381.913C468.107 382.606 468.491 383.134 468.982 383.497C469.483 383.86 470.059 384.041 470.71 384.041ZM486.36 382.057H484.12V385.001H482.968V382.057H476.648V381.225L482.584 373.801H483.864L478.136 381.033H483V378.441H484.12V381.033H486.36V382.057Z" fill="#00394C"/>
<path d="M546.468 403.097C545.604 403.097 544.831 402.868 544.148 402.409C543.476 401.95 542.948 401.294 542.564 400.441C542.191 399.577 542.004 398.564 542.004 397.401C542.004 396.238 542.191 395.23 542.564 394.377C542.948 393.513 543.476 392.852 544.148 392.393C544.831 391.934 545.604 391.705 546.468 391.705C547.332 391.705 548.1 391.934 548.772 392.393C549.455 392.852 549.988 393.513 550.372 394.377C550.756 395.23 550.948 396.238 550.948 397.401C550.948 398.564 550.756 399.577 550.372 400.441C549.988 401.294 549.455 401.95 548.772 402.409C548.1 402.868 547.332 403.097 546.468 403.097ZM546.468 402.041C547.119 402.041 547.689 401.86 548.18 401.497C548.681 401.134 549.071 400.606 549.348 399.913C549.625 399.22 549.764 398.382 549.764 397.401C549.764 396.42 549.625 395.582 549.348 394.889C549.071 394.196 548.681 393.668 548.18 393.305C547.689 392.942 547.119 392.761 546.468 392.761C545.817 392.761 545.241 392.942 544.74 393.305C544.249 393.668 543.865 394.196 543.588 394.889C543.311 395.582 543.172 396.42 543.172 397.401C543.172 398.382 543.311 399.22 543.588 399.913C543.865 400.606 544.249 401.134 544.74 401.497C545.241 401.86 545.817 402.041 546.468 402.041ZM555.542 396.393C557.163 396.393 558.342 396.686 559.078 397.273C559.824 397.849 560.198 398.66 560.198 399.705C560.198 400.356 560.043 400.937 559.734 401.449C559.435 401.961 558.982 402.366 558.374 402.665C557.766 402.953 557.019 403.097 556.134 403.097C555.334 403.097 554.571 402.969 553.846 402.713C553.131 402.446 552.555 402.094 552.118 401.657L552.678 400.745C553.051 401.129 553.542 401.444 554.15 401.689C554.758 401.924 555.414 402.041 556.118 402.041C557.046 402.041 557.76 401.833 558.262 401.417C558.774 401.001 559.03 400.446 559.03 399.753C559.03 398.985 558.742 398.404 558.166 398.009C557.6 397.614 556.64 397.417 555.286 397.417H552.902L553.478 391.801H559.606V392.825H554.486L554.102 396.393H555.542Z" fill="#00394C"/>
<path d="M631.624 424.097C630.76 424.097 629.987 423.868 629.304 423.409C628.632 422.95 628.104 422.294 627.72 421.441C627.347 420.577 627.16 419.564 627.16 418.401C627.16 417.238 627.347 416.23 627.72 415.377C628.104 414.513 628.632 413.852 629.304 413.393C629.987 412.934 630.76 412.705 631.624 412.705C632.488 412.705 633.256 412.934 633.928 413.393C634.611 413.852 635.144 414.513 635.528 415.377C635.912 416.23 636.104 417.238 636.104 418.401C636.104 419.564 635.912 420.577 635.528 421.441C635.144 422.294 634.611 422.95 633.928 423.409C633.256 423.868 632.488 424.097 631.624 424.097ZM631.624 423.041C632.275 423.041 632.845 422.86 633.336 422.497C633.837 422.134 634.227 421.606 634.504 420.913C634.781 420.22 634.92 419.382 634.92 418.401C634.92 417.42 634.781 416.582 634.504 415.889C634.227 415.196 633.837 414.668 633.336 414.305C632.845 413.942 632.275 413.761 631.624 413.761C630.973 413.761 630.397 413.942 629.896 414.305C629.405 414.668 629.021 415.196 628.744 415.889C628.467 416.582 628.328 417.42 628.328 418.401C628.328 419.382 628.467 420.22 628.744 420.913C629.021 421.606 629.405 422.134 629.896 422.497C630.397 422.86 630.973 423.041 631.624 423.041ZM642.394 417.297C643.13 417.297 643.781 417.436 644.346 417.713C644.922 417.99 645.37 418.385 645.69 418.897C646.01 419.398 646.17 419.985 646.17 420.657C646.17 421.34 646.005 421.942 645.674 422.465C645.343 422.988 644.885 423.393 644.298 423.681C643.722 423.958 643.071 424.097 642.346 424.097C640.863 424.097 639.727 423.612 638.938 422.641C638.149 421.66 637.754 420.278 637.754 418.497C637.754 417.249 637.967 416.193 638.394 415.329C638.821 414.465 639.418 413.814 640.186 413.377C640.954 412.929 641.85 412.705 642.874 412.705C643.983 412.705 644.869 412.908 645.53 413.313L645.066 414.241C644.533 413.889 643.807 413.713 642.89 413.713C641.653 413.713 640.682 414.108 639.978 414.897C639.274 415.676 638.922 416.812 638.922 418.305C638.922 418.572 638.938 418.876 638.97 419.217C639.247 418.609 639.69 418.14 640.298 417.809C640.906 417.468 641.605 417.297 642.394 417.297ZM642.298 423.121C643.109 423.121 643.765 422.902 644.266 422.465C644.778 422.017 645.034 421.425 645.034 420.689C645.034 419.953 644.778 419.366 644.266 418.929C643.765 418.492 643.082 418.273 642.218 418.273C641.653 418.273 641.151 418.38 640.714 418.593C640.287 418.806 639.951 419.1 639.706 419.473C639.461 419.846 639.338 420.262 639.338 420.721C639.338 421.148 639.45 421.542 639.674 421.905C639.909 422.268 640.25 422.561 640.698 422.785C641.146 423.009 641.679 423.121 642.298 423.121Z" fill="#00394C"/>
<path d="M719.351 445.097C718.487 445.097 717.713 444.868 717.031 444.409C716.359 443.95 715.831 443.294 715.447 442.441C715.073 441.577 714.887 440.564 714.887 439.401C714.887 438.238 715.073 437.23 715.447 436.377C715.831 435.513 716.359 434.852 717.031 434.393C717.713 433.934 718.487 433.705 719.351 433.705C720.215 433.705 720.983 433.934 721.655 434.393C722.337 434.852 722.871 435.513 723.255 436.377C723.639 437.23 723.831 438.238 723.831 439.401C723.831 440.564 723.639 441.577 723.255 442.441C722.871 443.294 722.337 443.95 721.655 444.409C720.983 444.868 720.215 445.097 719.351 445.097ZM719.351 444.041C720.001 444.041 720.572 443.86 721.063 443.497C721.564 443.134 721.953 442.606 722.231 441.913C722.508 441.22 722.647 440.382 722.647 439.401C722.647 438.42 722.508 437.582 722.231 436.889C721.953 436.196 721.564 435.668 721.063 435.305C720.572 434.942 720.001 434.761 719.351 434.761C718.7 434.761 718.124 434.942 717.623 435.305C717.132 435.668 716.748 436.196 716.471 436.889C716.193 437.582 716.055 438.42 716.055 439.401C716.055 440.382 716.193 441.22 716.471 441.913C716.748 442.606 717.132 443.134 717.623 443.497C718.124 443.86 718.7 444.041 719.351 444.041ZM733.259 433.801V434.617L728.571 445.001H727.323L731.931 434.825H726.171V436.921H725.035V433.801H733.259Z" fill="#00394C"/>
<path d="M814.398 445.097C813.534 445.097 812.76 444.868 812.078 444.409C811.406 443.95 810.878 443.294 810.494 442.441C810.12 441.577 809.934 440.564 809.934 439.401C809.934 438.238 810.12 437.23 810.494 436.377C810.878 435.513 811.406 434.852 812.078 434.393C812.76 433.934 813.534 433.705 814.398 433.705C815.262 433.705 816.03 433.934 816.702 434.393C817.384 434.852 817.918 435.513 818.302 436.377C818.686 437.23 818.878 438.238 818.878 439.401C818.878 440.564 818.686 441.577 818.302 442.441C817.918 443.294 817.384 443.95 816.702 444.409C816.03 444.868 815.262 445.097 814.398 445.097ZM814.398 444.041C815.048 444.041 815.619 443.86 816.11 443.497C816.611 443.134 817 442.606 817.278 441.913C817.555 441.22 817.694 440.382 817.694 439.401C817.694 438.42 817.555 437.582 817.278 436.889C817 436.196 816.611 435.668 816.11 435.305C815.619 434.942 815.048 434.761 814.398 434.761C813.747 434.761 813.171 434.942 812.67 435.305C812.179 435.668 811.795 436.196 811.518 436.889C811.24 437.582 811.102 438.42 811.102 439.401C811.102 440.382 811.24 441.22 811.518 441.913C811.795 442.606 812.179 443.134 812.67 443.497C813.171 443.86 813.747 444.041 814.398 444.041ZM826.943 439.129C827.647 439.364 828.186 439.716 828.559 440.185C828.943 440.654 829.135 441.22 829.135 441.881C829.135 442.532 828.959 443.102 828.607 443.593C828.255 444.073 827.749 444.446 827.087 444.713C826.437 444.969 825.669 445.097 824.783 445.097C823.439 445.097 822.383 444.809 821.615 444.233C820.847 443.657 820.463 442.873 820.463 441.881C820.463 441.209 820.645 440.644 821.007 440.185C821.381 439.716 821.919 439.364 822.623 439.129C822.047 438.905 821.61 438.585 821.311 438.169C821.013 437.742 820.863 437.241 820.863 436.665C820.863 435.758 821.215 435.038 821.919 434.505C822.634 433.972 823.589 433.705 824.783 433.705C825.573 433.705 826.261 433.828 826.847 434.073C827.445 434.308 827.909 434.649 828.239 435.097C828.57 435.545 828.735 436.068 828.735 436.665C828.735 437.241 828.581 437.742 828.271 438.169C827.962 438.585 827.519 438.905 826.943 439.129ZM822.015 436.697C822.015 437.316 822.261 437.806 822.751 438.169C823.242 438.532 823.919 438.713 824.783 438.713C825.647 438.713 826.325 438.532 826.815 438.169C827.317 437.806 827.567 437.321 827.567 436.713C827.567 436.084 827.311 435.588 826.799 435.225C826.298 434.862 825.626 434.681 824.783 434.681C823.93 434.681 823.253 434.862 822.751 435.225C822.261 435.588 822.015 436.078 822.015 436.697ZM824.783 444.121C825.775 444.121 826.549 443.918 827.103 443.513C827.669 443.108 827.951 442.558 827.951 441.865C827.951 441.172 827.669 440.628 827.103 440.233C826.549 439.828 825.775 439.625 824.783 439.625C823.802 439.625 823.029 439.828 822.463 440.233C821.909 440.628 821.631 441.172 821.631 441.865C821.631 442.569 821.909 443.124 822.463 443.529C823.018 443.924 823.791 444.121 824.783 444.121Z" fill="#00394C"/>
<path d="M526.624 66.097C525.76 66.097 524.987 65.8676 524.304 65.409C523.632 64.9503 523.104 64.2943 522.72 63.441C522.347 62.577 522.16 61.5636 522.16 60.401C522.16 59.2383 522.347 58.2303 522.72 57.377C523.104 56.513 523.632 55.8516 524.304 55.393C524.987 54.9343 525.76 54.705 526.624 54.705C527.488 54.705 528.256 54.9343 528.928 55.393C529.611 55.8516 530.144 56.513 530.528 57.377C530.912 58.2303 531.104 59.2383 531.104 60.401C531.104 61.5636 530.912 62.577 530.528 63.441C530.144 64.2943 529.611 64.9503 528.928 65.409C528.256 65.8676 527.488 66.097 526.624 66.097ZM526.624 65.041C527.275 65.041 527.845 64.8596 528.336 64.497C528.837 64.1343 529.227 63.6063 529.504 62.913C529.781 62.2196 529.92 61.3823 529.92 60.401C529.92 59.4196 529.781 58.5823 529.504 57.889C529.227 57.1956 528.837 56.6676 528.336 56.305C527.845 55.9423 527.275 55.761 526.624 55.761C525.973 55.761 525.397 55.9423 524.896 56.305C524.405 56.6676 524.021 57.1956 523.744 57.889C523.467 58.5823 523.328 59.4196 523.328 60.401C523.328 61.3823 523.467 62.2196 523.744 62.913C524.021 63.6063 524.405 64.1343 524.896 64.497C525.397 64.8596 525.973 65.041 526.624 65.041ZM536.242 54.705C537.725 54.705 538.861 55.1956 539.65 56.177C540.439 57.1476 540.834 58.5236 540.834 60.305C540.834 61.553 540.621 62.609 540.194 63.473C539.767 64.337 539.17 64.993 538.402 65.441C537.634 65.8783 536.738 66.097 535.714 66.097C534.605 66.097 533.719 65.8943 533.058 65.489L533.522 64.561C534.055 64.913 534.781 65.089 535.698 65.089C536.935 65.089 537.906 64.6996 538.61 63.921C539.314 63.1316 539.666 61.9903 539.666 60.497C539.666 60.2196 539.65 59.9156 539.618 59.585C539.341 60.193 538.898 60.6676 538.29 61.009C537.682 61.3396 536.983 61.505 536.194 61.505C535.458 61.505 534.802 61.3663 534.226 61.089C533.661 60.8116 533.218 60.4223 532.898 59.921C532.578 59.409 532.418 58.817 532.418 58.145C532.418 57.4623 532.583 56.8596 532.914 56.337C533.245 55.8143 533.698 55.4143 534.274 55.137C534.861 54.849 535.517 54.705 536.242 54.705ZM536.37 60.529C536.935 60.529 537.431 60.4223 537.858 60.209C538.295 59.9956 538.637 59.7023 538.882 59.329C539.127 58.9556 539.25 58.5396 539.25 58.081C539.25 57.6543 539.133 57.2596 538.898 56.897C538.674 56.5343 538.338 56.241 537.89 56.017C537.442 55.793 536.909 55.681 536.29 55.681C535.479 55.681 534.818 55.905 534.306 56.353C533.805 56.7903 533.554 57.377 533.554 58.113C533.554 58.849 533.805 59.4356 534.306 59.873C534.818 60.3103 535.506 60.529 536.37 60.529Z" fill="#00394C"/>
</svg>
