<svg xmlns="http://www.w3.org/2000/svg" xmlns:xlink="http://www.w3.org/1999/xlink" width="320" height="188.062" viewBox="0 0 320 188.062">
  <defs>
    <clipPath id="clip-path">
      <rect id="Rectangle_19" data-name="Rectangle 19" width="320" height="188.062" transform="translate(788 1695)" fill="#6b2c2c"/>
    </clipPath>
  </defs>
  <g id="_320x188" data-name="320x188" transform="translate(-788 -1695)" clip-path="url(#clip-path)">
    <g id="Group_3" data-name="Group 3" transform="translate(788 1695.111)">
      <g id="Group_2" data-name="Group 2" transform="translate(0 0)">
        <path id="base" d="M320,209.29,0,135.37v-5.364l11.84,2.484L25.6,35.53H0V30.09l320-8.64v6.526l-15.284.4L279.744,193.629,320,202.762ZM32.469,35.527l-14.4,98.742,255.488,57.956,24.736-163.68Z" transform="translate(0 -21.45)" fill="#f2f5f6"/>
        <rect id="Rectangle_12" data-name="Rectangle 12" width="0.64" height="162.239" transform="matrix(0.99, 0.141, -0.141, 0.99, 313.033, 9.867)" fill="#f2f5f6"/>
        <rect id="Rectangle_13" data-name="Rectangle 13" width="4.8" height="0.64" transform="matrix(0.99, 0.141, -0.141, 0.99, 308.915, 9.281)" fill="#f2f5f6"/>
        <rect id="Rectangle_14" data-name="Rectangle 14" width="4.8" height="0.64" transform="matrix(0.99, 0.141, -0.141, 0.99, 286.168, 169.272)" fill="#f2f5f6"/>
        <rect id="Rectangle_15" data-name="Rectangle 15" width="0.64" height="92.16" transform="translate(17.443 16.098) rotate(7.76)" fill="#f2f5f6"/>
        <rect id="Rectangle_16" data-name="Rectangle 16" width="4.8" height="0.64" transform="translate(17.443 16.098) rotate(7.76)" fill="#f2f5f6"/>
        <rect id="Rectangle_17" data-name="Rectangle 17" width="4.8" height="0.64" transform="translate(5.086 106.78) rotate(7.76)" fill="#f2f5f6"/>
      </g>
      <path id="Path_52" data-name="Path 52" d="M0,0H24.96V41.92a8,8,0,0,1-8,8H0Z" transform="matrix(0.97, 0.242, -0.242, 0.97, 145.856, 29.674)" fill="#fff" stroke="#00394c" stroke-width="0.65"/>
      <path id="Path_56" data-name="Path 56" d="M0,.352,40.711,0l-.3,28.33L2.876,29.77Z" transform="matrix(0.97, 0.242, -0.242, 0.97, 28.092, 53.518)" fill="#fff" stroke="#00394c" stroke-width="0.65"/>
      <path id="Path_58" data-name="Path 58" d="M0,1.3,37.436,0l.585,29.5-35.739.587Z" transform="matrix(0.97, 0.242, -0.242, 0.97, 23.933, 82.479)" fill="#fff" stroke="#00394c" stroke-width="0.65"/>
      <path id="Path_60" data-name="Path 60" d="M0,0H20.16c7.1-.059,7.735,4.518,7.735,6.734l.265,21.2L.248,28.4Z" transform="matrix(-0.966, -0.259, 0.259, -0.966, 192.443, 93.501)" fill="#fff" stroke="#00394c" stroke-width="0.65"/>
      <path id="Path_62" data-name="Path 62" d="M.844.407,37.2,0,36.154,56.97H0Z" transform="matrix(0.97, 0.242, -0.242, 0.97, 206.823, 38.47)" fill="#fff" stroke="#00394c" stroke-width="0.65"/>
      <path id="Path_64" data-name="Path 64" d="M1.008.1,48.09,0l5.568,57.042L0,57.132Z" transform="matrix(0.97, 0.242, -0.242, 0.97, 242.602, 47.345)" fill="#fff" stroke="#00394c" stroke-width="0.65"/>
      <path id="Path_66" data-name="Path 66" d="M0,.867,25.4,0l.618,34.074a8,8,0,0,1-8,8H1.38Z" transform="matrix(-0.966, -0.259, 0.259, -0.966, 87.921, 128.866)" fill="#fff" stroke="#00394c" stroke-width="0.65"/>
      <path id="Path_68" data-name="Path 68" d="M0,0,24.838.088,25.633,40.6.449,41.222Z" transform="matrix(0.97, 0.242, -0.242, 0.97, 98.135, 88.09)" fill="#fff" stroke="#00394c" stroke-width="0.65"/>
      <path id="Path_70" data-name="Path 70" d="M0,.354,24.841,0l.795,40.515-24.7.378Z" transform="matrix(0.97, 0.242, -0.242, 0.97, 122.751, 93.934)" fill="#fff" stroke="#00394c" stroke-width="0.65"/>
      <path id="Path_72" data-name="Path 72" d="M0,.058,20.328,0l.711,40.192L.867,40.556Z" transform="matrix(0.97, 0.242, -0.242, 0.97, 147.394, 100.015)" fill="#fff" stroke="#00394c" stroke-width="0.65"/>
      <path id="Path_74" data-name="Path 74" d="M0,0H27.689l1.127,39.4L.9,40.068Z" transform="matrix(0.97, 0.242, -0.242, 0.97, 167.605, 105.148)" fill="#fff" stroke="#00394c" stroke-width="0.65"/>
      <path id="Path_76" data-name="Path 76" d="M0,.14,27.742,0l.887,38.948-27.491.6Z" transform="matrix(0.97, 0.242, -0.242, 0.97, 195.074, 111.855)" fill="#fff" stroke="#00394c" stroke-width="0.65"/>
      <path id="Path_78" data-name="Path 78" d="M0,.11,28.869,0,29.8,38.388.933,38.976Z" transform="matrix(0.97, 0.242, -0.242, 0.97, 222.525, 118.638)" fill="#fff" stroke="#00394c" stroke-width="0.65"/>
      <path id="Path_80" data-name="Path 80" d="M0,.072,27.027,0l5.229,53.778-31.114.63Z" transform="matrix(0.97, 0.242, -0.242, 0.97, 254.609, 110.101)" fill="#fff" stroke="#00394c" stroke-width="0.65"/>
      <path id="Path_82" data-name="Path 82" d="M.155,4.589,17.086,0l.32,17.458,7.559.045,0,5.025H0Z" transform="matrix(0.97, 0.242, -0.242, 0.97, 151.461, 7.194)" fill="#fff" stroke="#00394c" stroke-width="0.65"/>
      <path id="Path_84" data-name="Path 84" d="M547.876,235.335l5.358-21.7,107.651-2.671-7.658,50.056Z" transform="translate(-363.912 -202.787)" fill="#fff" stroke="#00394c" stroke-width="0.65"/>
      <path id="Path_85" data-name="Path 85" d="M542.942,237.9l-3.218-.722,5.065-20.812h3.465Z" transform="translate(-359.773 -205.53)" fill="#fff" stroke="#00394c" stroke-width="0.65"/>
      <path id="Path_86" data-name="Path 86" d="M0,.466c24.578,0,25.6-.688,27.837-.392l.056,27.031L.063,27.862Z" transform="matrix(-0.966, -0.259, 0.259, -0.966, 199.704, 65.686)" fill="#fff" stroke="#00394c" stroke-width="0.65"/>
      <path id="Path_88" data-name="Path 88" d="M0,2.028,7.308,0,7.292,19.165.25,19.084Z" transform="matrix(0.97, 0.242, -0.242, 0.97, 169.144, 9.355)" fill="#fff" stroke="#00394c" stroke-width="0.65"/>
      <path id="Path_91" data-name="Path 91" d="M258.228,76.161l-20.8-5.187-9.367,37.571,20.8,5.187Z" transform="translate(-115.783 -36.033)" fill="#fff" stroke="#00394c" stroke-width="0.65"/>
      <path id="Path_92" data-name="Path 92" d="M214.108,65.761l-20.8-5.187-9.29,37.26,20.8,5.187Z" transform="translate(-93.423 -30.753)" fill="#fff" stroke="#00394c" stroke-width="0.65"/>
      <path id="Path_93" data-name="Path 93" d="M169.908,54.711l-20.8-5.187-9.29,37.26,20.8,5.187Z" transform="translate(-70.983 -25.143)" fill="#fff" stroke="#00394c" stroke-width="0.65"/>
      <path id="Path_96" data-name="Path 96" d="M-561.21,652.56l5.261-38.259,46.5-.9-12.073,48.862Z" transform="translate(589.242 -599.421)" fill="#fff" stroke="#00394c" stroke-width="0.65"/>
      <g id="numbers" transform="translate(36.211 18.464)">
        <path id="_01" data-name="01" d="M74.332,205.605a1.3,1.3,0,0,1-.742-.22,1.472,1.472,0,0,1-.507-.63,2.439,2.439,0,0,1-.179-.973,2.4,2.4,0,0,1,.179-.968,1.465,1.465,0,0,1,.507-.635,1.3,1.3,0,0,1,.742-.22,1.276,1.276,0,0,1,.736.22,1.45,1.45,0,0,1,.512.635,2.342,2.342,0,0,1,.184.968,2.378,2.378,0,0,1-.184.973,1.455,1.455,0,0,1-.512.63A1.276,1.276,0,0,1,74.332,205.605Zm0-.338a.9.9,0,0,0,.548-.174,1.12,1.12,0,0,0,.374-.507,2.493,2.493,0,0,0,0-1.608,1.12,1.12,0,0,0-.374-.507.9.9,0,0,0-.548-.174.918.918,0,0,0-.553.174,1.133,1.133,0,0,0-.369.507,2.493,2.493,0,0,0,0,1.608,1.133,1.133,0,0,0,.37.507.918.918,0,0,0,.552.173Zm2.944-3.277v3.583h-.369v-3.256h-.845v-.328Z" transform="translate(-72.903 -120.358)" fill="#00394c"/>
        <path id="_02" data-name="02" d="M84.63,147.1a1.3,1.3,0,0,1-.742-.22,1.472,1.472,0,0,1-.507-.63,2.439,2.439,0,0,1-.179-.973,2.4,2.4,0,0,1,.179-.968,1.465,1.465,0,0,1,.507-.635,1.3,1.3,0,0,1,.742-.22,1.276,1.276,0,0,1,.736.22,1.45,1.45,0,0,1,.512.635,2.342,2.342,0,0,1,.184.968,2.378,2.378,0,0,1-.184.973,1.455,1.455,0,0,1-.512.63A1.276,1.276,0,0,1,84.63,147.1Zm0-.338a.9.9,0,0,0,.548-.174,1.12,1.12,0,0,0,.374-.507,2.493,2.493,0,0,0,0-1.608,1.12,1.12,0,0,0-.374-.507.9.9,0,0,0-.548-.174.918.918,0,0,0-.553.174,1.134,1.134,0,0,0-.369.507,2.493,2.493,0,0,0,0,1.608,1.133,1.133,0,0,0,.369.507.918.918,0,0,0,.553.173Zm4.4-.02v.326H86.515v-.261l1.49-1.459a1.886,1.886,0,0,0,.379-.476.906.906,0,0,0,.1-.41.59.59,0,0,0-.22-.492.945.945,0,0,0-.62-.179,1.229,1.229,0,0,0-.978.4l-.261-.224a1.379,1.379,0,0,1,.532-.379,1.946,1.946,0,0,1,.736-.133,1.322,1.322,0,0,1,.864.261.852.852,0,0,1,.323.707,1.216,1.216,0,0,1-.123.532,2.23,2.23,0,0,1-.466.589l-1.219,1.2Z" transform="translate(-78.131 -90.656)" fill="#00394c"/>
        <path id="_03" data-name="03" d="M100.291,71.705a1.3,1.3,0,0,1-.742-.22,1.472,1.472,0,0,1-.507-.63,2.432,2.432,0,0,1-.179-.973,2.4,2.4,0,0,1,.179-.968,1.465,1.465,0,0,1,.507-.635,1.3,1.3,0,0,1,.742-.22,1.276,1.276,0,0,1,.736.22,1.452,1.452,0,0,1,.512.635,2.342,2.342,0,0,1,.184.968,2.378,2.378,0,0,1-.184.973,1.457,1.457,0,0,1-.512.63A1.276,1.276,0,0,1,100.291,71.705Zm0-.338a.9.9,0,0,0,.548-.174,1.12,1.12,0,0,0,.374-.507,2.493,2.493,0,0,0,0-1.608,1.12,1.12,0,0,0-.374-.507.9.9,0,0,0-.548-.174.918.918,0,0,0-.553.174,1.133,1.133,0,0,0-.369.507,2.493,2.493,0,0,0,0,1.608,1.134,1.134,0,0,0,.369.507.918.918,0,0,0,.553.173Zm3.13-1.741a1.308,1.308,0,0,1,.855.307.918.918,0,0,1,.3.712.965.965,0,0,1-.589.922,1.654,1.654,0,0,1-.712.138,2.2,2.2,0,0,1-.736-.123,1.521,1.521,0,0,1-.553-.338l.179-.292a1.34,1.34,0,0,0,.476.3,1.773,1.773,0,0,0,.635.113,1.077,1.077,0,0,0,.681-.189.648.648,0,0,0,.241-.532.628.628,0,0,0-.241-.522,1.163,1.163,0,0,0-.727-.189h-.256v-.271l.992-1.244h-1.833v-.329h2.3v.261Z" transform="translate(-86.082 -52.378)" fill="#00394c"/>
        <path id="_04" data-name="04" d="M163.438,91.855a1.3,1.3,0,0,1-.742-.22,1.472,1.472,0,0,1-.507-.63,2.438,2.438,0,0,1-.179-.973,2.4,2.4,0,0,1,.179-.968,1.465,1.465,0,0,1,.507-.635,1.3,1.3,0,0,1,.742-.22,1.276,1.276,0,0,1,.736.22,1.45,1.45,0,0,1,.512.635,2.342,2.342,0,0,1,.184.968,2.378,2.378,0,0,1-.184.973,1.455,1.455,0,0,1-.512.63,1.276,1.276,0,0,1-.736.22Zm0-.338a.9.9,0,0,0,.548-.174,1.12,1.12,0,0,0,.374-.507,2.493,2.493,0,0,0,0-1.608,1.12,1.12,0,0,0-.374-.507.9.9,0,0,0-.548-.174.918.918,0,0,0-.553.174,1.134,1.134,0,0,0-.369.507,2.493,2.493,0,0,0,0,1.608,1.134,1.134,0,0,0,.369.507.918.918,0,0,0,.553.173Zm5.008-.635h-.717v.941h-.369v-.942h-2.022v-.266l1.9-2.376h.41l-1.833,2.314h1.556v-.829h.358v.829h.717Z" transform="translate(-118.141 -61.328)" fill="#00394c"/>
        <path id="_05" data-name="05" d="M208.78,100.955a1.3,1.3,0,0,1-.742-.22,1.472,1.472,0,0,1-.507-.63,2.439,2.439,0,0,1-.179-.973,2.4,2.4,0,0,1,.179-.968,1.465,1.465,0,0,1,.507-.635,1.3,1.3,0,0,1,.742-.22,1.276,1.276,0,0,1,.736.22,1.451,1.451,0,0,1,.512.635,2.342,2.342,0,0,1,.184.968,2.378,2.378,0,0,1-.184.973,1.455,1.455,0,0,1-.512.63A1.276,1.276,0,0,1,208.78,100.955Zm0-.338a.9.9,0,0,0,.548-.174,1.118,1.118,0,0,0,.374-.507,2.494,2.494,0,0,0,0-1.608,1.118,1.118,0,0,0-.374-.507.9.9,0,0,0-.548-.174.918.918,0,0,0-.553.174,1.134,1.134,0,0,0-.369.507,2.494,2.494,0,0,0,0,1.608,1.133,1.133,0,0,0,.369.507.918.918,0,0,0,.553.173Zm2.9-1.807a1.818,1.818,0,0,1,1.132.282.928.928,0,0,1,.358.778,1.059,1.059,0,0,1-.148.558.994.994,0,0,1-.435.389,1.667,1.667,0,0,1-.717.138,2.183,2.183,0,0,1-.732-.123,1.521,1.521,0,0,1-.553-.338l.179-.292a1.349,1.349,0,0,0,.471.3,1.732,1.732,0,0,0,.63.113,1.048,1.048,0,0,0,.686-.2.652.652,0,0,0,.246-.532.633.633,0,0,0-.277-.558,1.672,1.672,0,0,0-.922-.189h-.764l.184-1.8h1.961v.328h-1.638l-.123,1.142Z" transform="translate(-141.161 -65.948)" fill="#00394c"/>
        <path id="_06" data-name="06" d="M253.732,110.054a1.3,1.3,0,0,1-.742-.22,1.472,1.472,0,0,1-.507-.63,2.439,2.439,0,0,1-.179-.973,2.4,2.4,0,0,1,.179-.968,1.465,1.465,0,0,1,.507-.635,1.3,1.3,0,0,1,.742-.22,1.276,1.276,0,0,1,.736.22,1.45,1.45,0,0,1,.512.635,2.341,2.341,0,0,1,.184.968,2.378,2.378,0,0,1-.184.973,1.455,1.455,0,0,1-.512.63A1.276,1.276,0,0,1,253.732,110.054Zm0-.338a.9.9,0,0,0,.548-.174,1.12,1.12,0,0,0,.374-.507,2.493,2.493,0,0,0,0-1.608,1.12,1.12,0,0,0-.374-.507.9.9,0,0,0-.548-.174.918.918,0,0,0-.553.174,1.134,1.134,0,0,0-.369.507,2.494,2.494,0,0,0,0,1.608,1.134,1.134,0,0,0,.37.507.918.918,0,0,0,.552.173Zm3.446-1.838a1.4,1.4,0,0,1,.625.133,1.011,1.011,0,0,1,.43.379,1.024,1.024,0,0,1,.154.563,1.039,1.039,0,0,1-.6.968,1.424,1.424,0,0,1-.625.133,1.324,1.324,0,0,1-1.091-.466,2.066,2.066,0,0,1-.379-1.326,2.272,2.272,0,0,1,.2-1.014,1.419,1.419,0,0,1,.573-.625,1.676,1.676,0,0,1,.86-.215,1.616,1.616,0,0,1,.85.195l-.148.3a1.251,1.251,0,0,0-.7-.169,1.184,1.184,0,0,0-.932.379,1.575,1.575,0,0,0-.338,1.091q0,.128.015.292a.953.953,0,0,1,.425-.451,1.348,1.348,0,0,1,.671-.164Zm-.032,1.864a.923.923,0,0,0,.63-.21.718.718,0,0,0,.246-.568.7.7,0,0,0-.246-.563.963.963,0,0,0-.655-.21,1.086,1.086,0,0,0-.48.1.809.809,0,0,0-.323.282.729.729,0,0,0-.01.778.809.809,0,0,0,.328.282,1.132,1.132,0,0,0,.513.107Z" transform="translate(-163.983 -70.566)" fill="#00394c"/>
        <path id="_07" data-name="07" d="M301,119.155a1.3,1.3,0,0,1-.742-.22,1.472,1.472,0,0,1-.507-.63,2.432,2.432,0,0,1-.179-.973,2.4,2.4,0,0,1,.179-.968,1.465,1.465,0,0,1,.507-.635,1.3,1.3,0,0,1,.742-.22,1.276,1.276,0,0,1,.736.22,1.452,1.452,0,0,1,.512.635,2.341,2.341,0,0,1,.184.968,2.378,2.378,0,0,1-.184.973,1.457,1.457,0,0,1-.512.63,1.276,1.276,0,0,1-.736.22Zm0-.338a.9.9,0,0,0,.548-.174,1.12,1.12,0,0,0,.374-.507,2.493,2.493,0,0,0,0-1.608,1.12,1.12,0,0,0-.374-.507.9.9,0,0,0-.548-.174.918.918,0,0,0-.553.174,1.133,1.133,0,0,0-.369.507,2.494,2.494,0,0,0,0,1.608,1.133,1.133,0,0,0,.369.507.918.918,0,0,0,.553.173Zm4.451-3.277v.261l-1.5,3.322h-.4l1.475-3.256h-1.843v.672h-.364v-1Z" transform="translate(-187.983 -75.188)" fill="#00394c"/>
        <path id="_01-2" data-name="01" d="M160.132,210.155a1.3,1.3,0,0,1-.742-.22,1.472,1.472,0,0,1-.507-.63,2.439,2.439,0,0,1-.179-.973,2.4,2.4,0,0,1,.179-.968,1.465,1.465,0,0,1,.507-.635,1.3,1.3,0,0,1,.742-.22,1.276,1.276,0,0,1,.736.22,1.45,1.45,0,0,1,.512.635,2.341,2.341,0,0,1,.184.968,2.377,2.377,0,0,1-.184.973,1.455,1.455,0,0,1-.512.63A1.276,1.276,0,0,1,160.132,210.155Zm0-.338a.9.9,0,0,0,.548-.174,1.12,1.12,0,0,0,.374-.507,2.493,2.493,0,0,0,0-1.608,1.12,1.12,0,0,0-.374-.507.9.9,0,0,0-.548-.174.918.918,0,0,0-.553.174,1.133,1.133,0,0,0-.369.507,2.494,2.494,0,0,0,0,1.608,1.133,1.133,0,0,0,.37.507.918.918,0,0,0,.552.173Zm2.944-3.277v3.583h-.369v-3.256h-.845v-.328Z" transform="translate(-116.783 -123.308)" fill="#00394c"/>
        <path id="_02-2" data-name="02" d="M209.43,223.154a1.3,1.3,0,0,1-.742-.22,1.472,1.472,0,0,1-.507-.63,2.439,2.439,0,0,1-.179-.973,2.4,2.4,0,0,1,.179-.968,1.465,1.465,0,0,1,.507-.635,1.3,1.3,0,0,1,.742-.22,1.276,1.276,0,0,1,.736.22,1.45,1.45,0,0,1,.512.635,2.341,2.341,0,0,1,.184.968,2.378,2.378,0,0,1-.184.973,1.455,1.455,0,0,1-.512.63,1.276,1.276,0,0,1-.736.22Zm0-.338a.9.9,0,0,0,.548-.174,1.12,1.12,0,0,0,.374-.507,2.493,2.493,0,0,0,0-1.608,1.12,1.12,0,0,0-.374-.507.9.9,0,0,0-.548-.174.918.918,0,0,0-.553.174,1.134,1.134,0,0,0-.369.507,2.494,2.494,0,0,0,0,1.608,1.134,1.134,0,0,0,.369.507.918.918,0,0,0,.553.173Zm4.4-.02v.326h-2.514v-.261l1.49-1.459a1.886,1.886,0,0,0,.379-.476.906.906,0,0,0,.1-.41.59.59,0,0,0-.22-.492.944.944,0,0,0-.62-.179,1.229,1.229,0,0,0-.978.4l-.261-.224a1.379,1.379,0,0,1,.532-.379,1.946,1.946,0,0,1,.736-.133,1.322,1.322,0,0,1,.864.261.852.852,0,0,1,.323.707,1.216,1.216,0,0,1-.123.532,2.23,2.23,0,0,1-.466.589l-1.219,1.2Z" transform="translate(-141.811 -129.906)" fill="#00394c"/>
        <path id="_03-2" data-name="03" d="M258.891,235.505a1.3,1.3,0,0,1-.742-.22,1.472,1.472,0,0,1-.507-.63,2.432,2.432,0,0,1-.179-.973,2.4,2.4,0,0,1,.179-.968,1.465,1.465,0,0,1,.507-.635,1.3,1.3,0,0,1,.742-.22,1.276,1.276,0,0,1,.736.22,1.452,1.452,0,0,1,.512.635,2.343,2.343,0,0,1,.184.968,2.378,2.378,0,0,1-.184.973,1.458,1.458,0,0,1-.512.63,1.276,1.276,0,0,1-.736.22Zm0-.338a.9.9,0,0,0,.548-.174,1.12,1.12,0,0,0,.374-.507,2.493,2.493,0,0,0,0-1.608,1.12,1.12,0,0,0-.374-.507.9.9,0,0,0-.548-.174.918.918,0,0,0-.553.174,1.133,1.133,0,0,0-.369.507,2.494,2.494,0,0,0,0,1.608,1.133,1.133,0,0,0,.369.507.918.918,0,0,0,.553.173Zm3.13-1.741a1.307,1.307,0,0,1,.855.307.918.918,0,0,1,.3.712.965.965,0,0,1-.589.922,1.653,1.653,0,0,1-.712.138,2.2,2.2,0,0,1-.736-.123,1.521,1.521,0,0,1-.553-.338l.179-.292a1.34,1.34,0,0,0,.476.3,1.774,1.774,0,0,0,.635.113,1.077,1.077,0,0,0,.681-.189.648.648,0,0,0,.241-.532.628.628,0,0,0-.241-.522,1.163,1.163,0,0,0-.727-.189h-.256v-.271l.992-1.244h-1.833v-.329h2.3v.261Z" transform="translate(-166.922 -136.178)" fill="#00394c"/>
        <path id="_04-2" data-name="04" d="M304.488,246.555a1.3,1.3,0,0,1-.742-.22,1.472,1.472,0,0,1-.507-.63,2.439,2.439,0,0,1-.179-.973,2.4,2.4,0,0,1,.179-.968,1.465,1.465,0,0,1,.507-.635,1.3,1.3,0,0,1,.742-.22,1.276,1.276,0,0,1,.736.22,1.45,1.45,0,0,1,.512.635,2.342,2.342,0,0,1,.184.968,2.377,2.377,0,0,1-.184.973,1.456,1.456,0,0,1-.512.63,1.276,1.276,0,0,1-.736.22Zm0-.338a.9.9,0,0,0,.548-.174,1.12,1.12,0,0,0,.374-.507,2.494,2.494,0,0,0,0-1.608,1.12,1.12,0,0,0-.374-.507.9.9,0,0,0-.548-.174.918.918,0,0,0-.553.174,1.134,1.134,0,0,0-.369.507,2.494,2.494,0,0,0,0,1.608,1.134,1.134,0,0,0,.369.507.918.918,0,0,0,.553.173Zm5.008-.635h-.717v.941h-.369v-.942h-2.022v-.266l1.9-2.376h.41l-1.833,2.314h1.557v-.829h.358v.829h.717Z" transform="translate(-190.071 -141.788)" fill="#00394c"/>
        <path id="_05-2" data-name="05" d="M353.73,258.255a1.3,1.3,0,0,1-.742-.22,1.472,1.472,0,0,1-.507-.63,2.439,2.439,0,0,1-.179-.973,2.4,2.4,0,0,1,.179-.968,1.466,1.466,0,0,1,.507-.635,1.3,1.3,0,0,1,.742-.22,1.276,1.276,0,0,1,.736.22,1.451,1.451,0,0,1,.512.635,2.342,2.342,0,0,1,.184.968,2.378,2.378,0,0,1-.184.973,1.455,1.455,0,0,1-.512.63A1.276,1.276,0,0,1,353.73,258.255Zm0-.338a.9.9,0,0,0,.548-.174,1.12,1.12,0,0,0,.374-.507,2.494,2.494,0,0,0,0-1.608,1.12,1.12,0,0,0-.374-.507.9.9,0,0,0-.548-.174.918.918,0,0,0-.553.174,1.134,1.134,0,0,0-.369.507,2.494,2.494,0,0,0,0,1.608,1.134,1.134,0,0,0,.369.507.918.918,0,0,0,.553.173Zm2.9-1.807a1.818,1.818,0,0,1,1.132.282.928.928,0,0,1,.358.778,1.058,1.058,0,0,1-.148.558.994.994,0,0,1-.435.389,1.667,1.667,0,0,1-.717.138,2.183,2.183,0,0,1-.732-.123,1.522,1.522,0,0,1-.553-.338l.179-.292a1.349,1.349,0,0,0,.471.3,1.732,1.732,0,0,0,.63.113,1.048,1.048,0,0,0,.686-.2.652.652,0,0,0,.246-.533.633.633,0,0,0-.276-.558,1.673,1.673,0,0,0-.922-.189h-.763l.184-1.8h1.961v.328H356.3l-.123,1.142Z" transform="translate(-215.071 -147.728)" fill="#00394c"/>
        <path id="_06-2" data-name="06" d="M409.082,271.9a1.3,1.3,0,0,1-.742-.22,1.472,1.472,0,0,1-.507-.63,2.44,2.44,0,0,1-.179-.973,2.4,2.4,0,0,1,.179-.968,1.466,1.466,0,0,1,.507-.635,1.3,1.3,0,0,1,.742-.22,1.276,1.276,0,0,1,.736.22,1.451,1.451,0,0,1,.512.635,2.342,2.342,0,0,1,.184.968,2.378,2.378,0,0,1-.184.973,1.455,1.455,0,0,1-.512.63A1.276,1.276,0,0,1,409.082,271.9Zm0-.338a.9.9,0,0,0,.548-.174,1.12,1.12,0,0,0,.374-.507,2.494,2.494,0,0,0,0-1.608,1.12,1.12,0,0,0-.374-.507.9.9,0,0,0-.548-.174.918.918,0,0,0-.553.174,1.134,1.134,0,0,0-.369.507,2.493,2.493,0,0,0,0,1.608,1.133,1.133,0,0,0,.37.507.918.918,0,0,0,.552.173Zm3.446-1.838a1.4,1.4,0,0,1,.625.133,1.011,1.011,0,0,1,.43.379,1.024,1.024,0,0,1,.154.563,1.039,1.039,0,0,1-.6.968,1.423,1.423,0,0,1-.625.133,1.324,1.324,0,0,1-1.091-.466,2.066,2.066,0,0,1-.379-1.326,2.272,2.272,0,0,1,.2-1.014,1.419,1.419,0,0,1,.573-.625,1.676,1.676,0,0,1,.86-.215,1.616,1.616,0,0,1,.85.195l-.148.3a1.251,1.251,0,0,0-.7-.169,1.184,1.184,0,0,0-.932.379,1.575,1.575,0,0,0-.338,1.091q0,.128.015.292a.953.953,0,0,1,.425-.451A1.348,1.348,0,0,1,412.528,269.728Zm-.032,1.864a.923.923,0,0,0,.63-.21.718.718,0,0,0,.246-.568.7.7,0,0,0-.246-.563.963.963,0,0,0-.655-.21,1.086,1.086,0,0,0-.48.1.809.809,0,0,0-.323.282.729.729,0,0,0-.01.778.809.809,0,0,0,.328.282,1.132,1.132,0,0,0,.513.107Z" transform="translate(-243.173 -154.656)" fill="#00394c"/>
        <path id="_07-2" data-name="07" d="M466.1,285.556a1.3,1.3,0,0,1-.742-.22,1.472,1.472,0,0,1-.507-.63,2.431,2.431,0,0,1-.179-.973,2.4,2.4,0,0,1,.179-.968,1.466,1.466,0,0,1,.507-.635,1.3,1.3,0,0,1,.742-.22,1.276,1.276,0,0,1,.736.22,1.452,1.452,0,0,1,.512.635,2.341,2.341,0,0,1,.184.968,2.376,2.376,0,0,1-.184.973,1.458,1.458,0,0,1-.512.63A1.276,1.276,0,0,1,466.1,285.556Zm0-.338a.9.9,0,0,0,.548-.174,1.12,1.12,0,0,0,.374-.507,2.494,2.494,0,0,0,0-1.608,1.12,1.12,0,0,0-.374-.507.9.9,0,0,0-.548-.174.918.918,0,0,0-.553.174,1.134,1.134,0,0,0-.369.507,2.494,2.494,0,0,0,0,1.608,1.134,1.134,0,0,0,.369.507.918.918,0,0,0,.553.173Zm4.451-3.277v.261l-1.5,3.322h-.4l1.475-3.256h-1.843v.672h-.363v-1Z" transform="translate(-272.123 -161.588)" fill="#00394c"/>
        <path id="_08" data-name="08" d="M527.886,285.554a1.3,1.3,0,0,1-.742-.22,1.471,1.471,0,0,1-.507-.63,2.432,2.432,0,0,1-.179-.973,2.4,2.4,0,0,1,.179-.968,1.466,1.466,0,0,1,.507-.635,1.3,1.3,0,0,1,.742-.22,1.276,1.276,0,0,1,.736.22,1.453,1.453,0,0,1,.512.635,2.341,2.341,0,0,1,.184.968,2.377,2.377,0,0,1-.184.973,1.458,1.458,0,0,1-.512.63A1.276,1.276,0,0,1,527.886,285.554Zm0-.338a.9.9,0,0,0,.548-.174,1.12,1.12,0,0,0,.374-.507,2.494,2.494,0,0,0,0-1.608,1.12,1.12,0,0,0-.374-.507.9.9,0,0,0-.548-.174.918.918,0,0,0-.553.174,1.133,1.133,0,0,0-.369.507,2.494,2.494,0,0,0,0,1.608,1.133,1.133,0,0,0,.369.507.918.918,0,0,0,.553.173Zm4.014-1.572a1.074,1.074,0,0,1,.517.338.83.83,0,0,1,.184.544.915.915,0,0,1-.169.548,1.088,1.088,0,0,1-.486.358,2.008,2.008,0,0,1-.736.123,1.656,1.656,0,0,1-1.014-.276.89.89,0,0,1-.369-.753.849.849,0,0,1,.174-.544,1.074,1.074,0,0,1,.517-.338.9.9,0,0,1-.42-.307.877.877,0,0,1,.194-1.172,1.5,1.5,0,0,1,.917-.256,1.705,1.705,0,0,1,.661.118.983.983,0,0,1,.445.328.822.822,0,0,1,.16.5.8.8,0,0,1-.148.48.935.935,0,0,1-.428.308Zm-1.577-.778a.556.556,0,0,0,.236.471,1.3,1.3,0,0,0,1.3,0,.546.546,0,0,0,.241-.466.553.553,0,0,0-.246-.476,1.292,1.292,0,0,0-1.3,0,.556.556,0,0,0-.236.471Zm.886,2.376a1.239,1.239,0,0,0,.742-.195.615.615,0,0,0,.271-.527.6.6,0,0,0-.271-.522,1.239,1.239,0,0,0-.742-.195,1.254,1.254,0,0,0-.742.195.608.608,0,0,0-.266.522.625.625,0,0,0,.266.533,1.263,1.263,0,0,0,.742.188Z" transform="translate(-303.489 -161.586)" fill="#00394c"/>
        <path id="_11" data-name="11" d="M368.7,149.37v3.584h-.37V149.7h-.845v-.328Zm1.85,0v3.584h-.369V149.7h-.845v-.328Z" transform="translate(-223.099 -95.258)" fill="#00394c"/>
        <path id="_12" data-name="12" d="M382.249,97.338v3.584h-.369V97.666h-.845v-.328Zm3.3,3.256v.328h-2.514v-.261l1.49-1.459a1.9,1.9,0,0,0,.379-.476.91.91,0,0,0,.1-.41.591.591,0,0,0-.22-.492.945.945,0,0,0-.62-.179,1.228,1.228,0,0,0-.978.4l-.261-.224a1.376,1.376,0,0,1,.532-.379,1.944,1.944,0,0,1,.736-.133,1.322,1.322,0,0,1,.864.261.852.852,0,0,1,.323.707,1.216,1.216,0,0,1-.123.532,2.237,2.237,0,0,1-.466.589l-1.219,1.2Z" transform="translate(-229.979 -68.826)" fill="#00394c"/>
        <path id="_10" data-name="10" d="M437.011,137.639v3.584h-.368v-3.256H435.8v-.328Zm2.285,3.616a1.3,1.3,0,0,1-.742-.22,1.472,1.472,0,0,1-.507-.63,2.432,2.432,0,0,1-.179-.973,2.4,2.4,0,0,1,.179-.968,1.465,1.465,0,0,1,.507-.635,1.3,1.3,0,0,1,.742-.22,1.276,1.276,0,0,1,.736.22,1.453,1.453,0,0,1,.512.635,2.341,2.341,0,0,1,.184.968,2.378,2.378,0,0,1-.184.973,1.458,1.458,0,0,1-.512.63A1.276,1.276,0,0,1,439.3,141.255Zm0-.338a.9.9,0,0,0,.548-.174,1.12,1.12,0,0,0,.374-.507,2.494,2.494,0,0,0,0-1.608,1.12,1.12,0,0,0-.374-.509.9.9,0,0,0-.548-.174.918.918,0,0,0-.553.174,1.133,1.133,0,0,0-.369.507,2.493,2.493,0,0,0,0,1.608,1.134,1.134,0,0,0,.369.507.918.918,0,0,0,.554.176Z" transform="translate(-257.782 -89.288)" fill="#00394c"/>
        <path id="_09" data-name="09" d="M525.432,162.053a1.3,1.3,0,0,1-.742-.22,1.473,1.473,0,0,1-.507-.63,2.439,2.439,0,0,1-.179-.973,2.4,2.4,0,0,1,.179-.968,1.467,1.467,0,0,1,.507-.635,1.3,1.3,0,0,1,.742-.22,1.276,1.276,0,0,1,.736.22,1.45,1.45,0,0,1,.512.635,2.341,2.341,0,0,1,.184.968,2.376,2.376,0,0,1-.184.973,1.455,1.455,0,0,1-.512.63A1.276,1.276,0,0,1,525.432,162.053Zm0-.338a.9.9,0,0,0,.548-.174,1.119,1.119,0,0,0,.374-.507,2.493,2.493,0,0,0,0-1.608,1.119,1.119,0,0,0-.374-.507.9.9,0,0,0-.548-.174.918.918,0,0,0-.553.174,1.133,1.133,0,0,0-.369.507,2.494,2.494,0,0,0,0,1.608,1.134,1.134,0,0,0,.37.507.918.918,0,0,0,.552.173Zm3.078-3.308a1.318,1.318,0,0,1,1.091.471,2.045,2.045,0,0,1,.379,1.321,2.272,2.272,0,0,1-.2,1.014,1.451,1.451,0,0,1-.573.63,1.71,1.71,0,0,1-.86.21,1.616,1.616,0,0,1-.85-.195l.148-.3a1.251,1.251,0,0,0,.7.169,1.192,1.192,0,0,0,.932-.374,1.6,1.6,0,0,0,.338-1.1q0-.133-.015-.292a.978.978,0,0,1-.425.456,1.38,1.38,0,0,1-.672.16,1.435,1.435,0,0,1-.63-.133,1.03,1.03,0,0,1-.425-.374,1.131,1.131,0,0,1,.005-1.147,1.033,1.033,0,0,1,.435-.384,1.41,1.41,0,0,1,.631-.141Zm.041,1.864a1.053,1.053,0,0,0,.476-.1.8.8,0,0,0,.328-.282.712.712,0,0,0,.118-.4.684.684,0,0,0-.113-.379.771.771,0,0,0-.323-.282,1.133,1.133,0,0,0-.512-.108.928.928,0,0,0-.635.215.779.779,0,0,0,0,1.126.983.983,0,0,0,.66.209Z" transform="translate(-302.563 -99.845)" fill="#00394c"/>
        <path id="_14" data-name="14" d="M493.564,50.57v3.584h-.37V50.9h-.845V50.57Zm3.9,2.642h-.717v.942h-.369v-.942H494.36v-.266l1.9-2.376h.41l-1.833,2.314h1.556v-.829h.358v.829h.717Z" transform="translate(-286.492 -45.098)" fill="#00394c"/>
        <path id="_08-2" data-name="08" d="M315.986,43.1a1.3,1.3,0,0,1-.742-.22,1.469,1.469,0,0,1-.507-.63,2.434,2.434,0,0,1-.179-.973,2.4,2.4,0,0,1,.179-.968,1.465,1.465,0,0,1,.507-.635,1.3,1.3,0,0,1,.742-.22,1.276,1.276,0,0,1,.736.22,1.451,1.451,0,0,1,.512.635,2.342,2.342,0,0,1,.184.968,2.378,2.378,0,0,1-.184.973,1.456,1.456,0,0,1-.512.63A1.277,1.277,0,0,1,315.986,43.1Zm0-.338a.9.9,0,0,0,.548-.174,1.12,1.12,0,0,0,.374-.507,2.494,2.494,0,0,0,0-1.608,1.12,1.12,0,0,0-.374-.507.9.9,0,0,0-.548-.174.919.919,0,0,0-.553.174,1.132,1.132,0,0,0-.369.507,2.493,2.493,0,0,0,0,1.608,1.132,1.132,0,0,0,.368.507.919.919,0,0,0,.554.173ZM320,41.194a1.072,1.072,0,0,1,.517.338.829.829,0,0,1,.184.544.915.915,0,0,1-.169.548,1.088,1.088,0,0,1-.486.358,2.007,2.007,0,0,1-.736.123,1.655,1.655,0,0,1-1.014-.276.891.891,0,0,1-.369-.753.849.849,0,0,1,.174-.544,1.074,1.074,0,0,1,.517-.338.9.9,0,0,1-.42-.307.877.877,0,0,1,.195-1.172,1.5,1.5,0,0,1,.916-.256,1.7,1.7,0,0,1,.66.118.982.982,0,0,1,.445.328.822.822,0,0,1,.16.5.8.8,0,0,1-.148.48.935.935,0,0,1-.428.308Zm-1.578-.778a.556.556,0,0,0,.236.471,1.3,1.3,0,0,0,1.3,0,.546.546,0,0,0,.241-.466.553.553,0,0,0-.246-.476,1.292,1.292,0,0,0-1.3,0,.556.556,0,0,0-.236.471Zm.886,2.376a1.238,1.238,0,0,0,.742-.195.615.615,0,0,0,.271-.527.6.6,0,0,0-.271-.522,1.238,1.238,0,0,0-.742-.195,1.253,1.253,0,0,0-.742.195.608.608,0,0,0-.266.522.625.625,0,0,0,.266.532,1.264,1.264,0,0,0,.742.188Z" transform="translate(-195.909 -37.536)" fill="#00394c"/>
        <path id="_13" data-name="13" d="M360.818,35.62V39.2h-.369V35.948H359.6V35.62Zm2.075,1.536a1.307,1.307,0,0,1,.855.307.918.918,0,0,1,.3.712.965.965,0,0,1-.589.922,1.653,1.653,0,0,1-.712.138,2.2,2.2,0,0,1-.736-.123,1.518,1.518,0,0,1-.553-.338l.179-.292a1.342,1.342,0,0,0,.476.3,1.776,1.776,0,0,0,.635.113,1.078,1.078,0,0,0,.681-.189.648.648,0,0,0,.241-.532.628.628,0,0,0-.241-.522,1.164,1.164,0,0,0-.727-.189h-.256v-.271l.992-1.244H361.6V35.62h2.3v.261Z" transform="translate(-218.779 -35.588)" fill="#00394c"/>
        <path id="_09-2" data-name="09" d="M340.832,39.2a1.3,1.3,0,0,1-.742-.22,1.469,1.469,0,0,1-.507-.63,2.44,2.44,0,0,1-.179-.973,2.4,2.4,0,0,1,.179-.968,1.465,1.465,0,0,1,.507-.635,1.3,1.3,0,0,1,.742-.22,1.276,1.276,0,0,1,.736.22,1.45,1.45,0,0,1,.512.635,2.341,2.341,0,0,1,.184.966,2.378,2.378,0,0,1-.184.973,1.454,1.454,0,0,1-.512.63A1.277,1.277,0,0,1,340.832,39.2Zm0-.338a.9.9,0,0,0,.548-.174,1.117,1.117,0,0,0,.374-.507,2.494,2.494,0,0,0,0-1.608,1.117,1.117,0,0,0-.374-.507.9.9,0,0,0-.548-.174.919.919,0,0,0-.553.174,1.132,1.132,0,0,0-.369.507,2.494,2.494,0,0,0,0,1.608,1.133,1.133,0,0,0,.37.507.919.919,0,0,0,.552.173Zm3.078-3.308a1.318,1.318,0,0,1,1.091.471,2.044,2.044,0,0,1,.379,1.321,2.271,2.271,0,0,1-.2,1.014,1.451,1.451,0,0,1-.573.63,1.708,1.708,0,0,1-.86.21,1.615,1.615,0,0,1-.85-.195l.148-.3a1.251,1.251,0,0,0,.7.169,1.193,1.193,0,0,0,.932-.374,1.6,1.6,0,0,0,.338-1.1q0-.133-.015-.292a.979.979,0,0,1-.425.456,1.382,1.382,0,0,1-.672.16,1.434,1.434,0,0,1-.63-.133,1.031,1.031,0,0,1-.425-.374,1.131,1.131,0,0,1,.005-1.147,1.035,1.035,0,0,1,.435-.384,1.41,1.41,0,0,1,.631-.14Zm.041,1.864a1.053,1.053,0,0,0,.476-.1.8.8,0,0,0,.328-.282.712.712,0,0,0,.118-.4.683.683,0,0,0-.112-.379.772.772,0,0,0-.323-.282,1.133,1.133,0,0,0-.512-.108.928.928,0,0,0-.635.215.78.78,0,0,0,0,1.126.983.983,0,0,0,.66.209Z" transform="translate(-208.523 -35.555)" fill="#00394c"/>
      </g>
    </g>
  </g>
</svg>
